<svg xmlns="http://www.w3.org/2000/svg" xml:space="preserve" width="800" height="800" viewBox="0 0 495 495"><path d="M144.157 388.053c16.613 1.984 35.279 12.746 50.9 14.646 15.705 1.983 20.565-10.695 20.565-10.695s17.673-3.951 36.253-4.406c18.598-.521 36.203 3.868 36.203 3.868s3.414 7.819 9.787 11.233c6.373 3.48 20.094 3.951 28.888-5.314 8.811-9.332 32.319-21.087 45.519-28.435 13.284-7.365 10.846-18.597 2.506-22.011s-15.167-8.794-14.646-19.119c.454-10.24-7.365-17.067-7.365-17.067s6.844-22.532.471-41.197c-6.373-18.58-27.392-48.461-43.551-70.926-16.159-22.532-2.439-48.545-17.151-81.789-14.714-33.294-52.867-31.326-73.432-17.135-20.565 14.192-14.26 49.386-13.268 66.084.992 16.613.454 28.501-1.446 32.773-1.9 4.338-15.167 20.094-23.978 33.294-8.794 13.267-15.168 40.659-21.608 51.959-6.306 11.233-1.9 21.473-1.9 21.473s-4.405 1.513-7.886 8.879c-3.414 7.281-10.241 10.761-22.533 13.133-12.208 2.505-12.208 10.375-9.265 19.186 2.959 8.794 0 13.721-3.414 24.954-3.413 11.231 13.671 14.644 30.351 16.612m172.692-51.237c8.727 3.817 21.271-1.497 25.088-5.314 3.801-3.8 6.491-9.45 6.491-9.45s3.817 1.9 3.43 7.936c-.404 6.121 2.623 14.848 8.34 17.875 5.717 3.01 14.444 7.213 9.921 11.417-4.608 4.204-30.099 14.461-37.716 22.465-7.55 7.953-17.471 14.461-23.508 12.544-6.103-1.9-11.434-10.24-8.81-22.448 2.707-12.157 4.994-25.492 4.607-33.109-.403-7.617-1.9-17.874 0-19.388 1.9-1.497 4.927-.774 4.927-.774s-1.515 14.447 7.23 18.246m-56.633-205.783c8.407 0 15.184 8.34 15.184 18.597 0 7.281-3.414 13.587-8.408 16.614-1.261-.521-2.573-1.11-4.019-1.716 3.027-1.496 5.128-5.313 5.128-9.719 0-5.767-3.547-10.509-8.004-10.509-4.338 0-7.954 4.741-7.954 10.509 0 2.103.522 4.204 1.379 5.852a355 355 0 0 0-6.894-2.69 22.7 22.7 0 0 1-1.581-8.34c.001-10.257 6.76-18.598 15.169-18.598m-20.818 32.05c4.137.723 15.503 5.65 19.708 7.163 4.204 1.446 8.861 4.136 8.407 6.827-.521 2.774-2.69 2.774-8.407 6.255-5.65 3.414-17.992 11.031-21.944 11.552-3.935.521-6.171-1.699-10.376-4.406-4.204-2.758-12.089-9.198-10.106-12.611 0 0 6.171-4.725 8.862-7.146 2.691-2.506 9.652-8.408 13.856-7.634m-18.127-29.09c6.625 0 12.023 7.886 12.023 17.605 0 1.766-.202 3.413-.521 5.061-1.648.521-3.295 1.379-4.877 2.758-.773.656-1.497 1.244-2.152 1.9 1.042-1.967 1.446-4.792.975-7.752-.908-5.246-4.456-9.13-7.937-8.609-3.498.589-5.583 5.398-4.742 10.712.925 5.381 4.405 9.264 7.953 8.676.202-.067.387-.134.589-.202-1.698 1.648-3.279 3.094-4.927 4.271-4.792-2.237-8.34-8.929-8.34-16.815.001-9.786 5.314-17.605 11.956-17.605m-36.909 127.223c6.827-10.761 11.232-34.286 18.059-42.105 6.895-7.802 12.208-24.432 9.787-31.78 0 0 14.713 17.605 24.954 14.713 10.257-2.96 33.311-20.094 36.724-17.151 3.414 2.959 32.773 67.529 35.732 88.094 2.96 20.548-1.967 36.254-1.967 36.254s-11.232-2.96-12.679 3.867c-1.446 6.894-1.446 31.865-1.446 31.865s-15.184 21.019-38.692 24.499c-23.508 3.414-35.279.925-35.279.925l-13.2-15.117s10.258-1.513 8.811-11.821c-1.446-10.24-31.344-24.433-36.725-37.179-5.379-12.746-.99-34.286 5.921-45.064m-58.13 77.114c1.177-5.044 16.411-5.044 22.263-8.592s7.028-13.738 11.754-16.428c4.657-2.758 13.267 7.029 16.815 12.543 3.481 5.381 16.816 28.906 22.264 34.757 5.515 5.902 10.577 13.721 8.996 20.75-1.496 7.028-9.786 12.157-9.786 12.157-7.415 2.287-28.098-6.642-37.497-10.577-9.399-3.951-33.311-5.129-36.388-8.609-3.161-3.548 1.513-11.367 2.757-18.783 1.109-7.499-2.371-12.157-1.178-17.218" style="fill:#eee"/></svg>