<svg xmlns="http://www.w3.org/2000/svg" width="349" height="170" fill="none"><g fill="#2DBCAF" clip-path="url(#a)"><path d="M26.237 55.359c-.679 0-.848-.389-.509-.971l3.565-5.244c.34-.583 1.188-.972 1.867-.972h60.599c.679 0 .849.583.509 1.166l-2.886 5.05c-.34.582-1.188 1.165-1.697 1.165zM.606 73.227c-.68 0-.849-.388-.51-.971l3.565-5.244c.34-.583 1.189-.971 1.867-.971h77.404c.679 0 1.019.583.849 1.165l-1.358 4.662c-.17.776-.849 1.165-1.528 1.165zm41.078 17.869c-.679 0-.849-.583-.51-1.166l2.377-4.855c.34-.583 1.019-1.166 1.698-1.166h33.949c.679 0 1.018.583 1.018 1.36l-.34 4.661c0 .777-.678 1.36-1.188 1.36zm176.195-39.233c-10.694 3.107-17.993 5.438-28.517 8.545-2.546.777-2.716.971-4.923-1.942-2.546-3.302-4.413-5.438-7.978-7.38-10.694-6.021-21.048-4.273-30.723 2.913-11.543 8.546-17.484 21.17-17.314 36.902.169 15.538 9.505 28.357 22.915 30.493 11.543 1.748 21.218-2.913 28.857-12.818 1.527-2.137 2.885-4.468 4.583-7.187h-32.761c-3.565 0-4.413-2.525-3.225-5.826 2.207-6.021 6.28-16.12 8.657-21.17.509-1.166 1.697-3.108 4.244-3.108h61.787c-.34 5.244-.34 10.488-1.019 15.732-1.867 13.984-6.45 26.803-13.919 38.067-12.222 18.452-28.178 29.911-48.377 33.018-16.635 2.525-32.082-1.165-45.662-12.818-12.561-10.877-19.69-25.249-21.557-43.118-2.207-21.17 3.225-40.204 14.428-56.907 12.052-18.063 28.008-29.522 47.529-33.6 15.956-3.302 31.233-1.166 44.982 9.516 8.997 6.798 15.447 16.121 19.69 27.386 1.019 1.748.34 2.719-1.697 3.302"/><path d="M274.064 159.268c-15.446-.389-29.535-5.439-41.417-17.092-10.015-9.905-16.296-22.53-18.333-37.485-3.055-21.947 2.207-41.37 13.75-58.655 12.391-18.645 27.329-28.356 47.528-32.435 17.314-3.496 33.61-1.554 48.377 9.905 13.41 10.488 21.728 24.666 23.934 43.312 2.886 26.22-3.734 47.584-19.52 65.841-11.203 13.013-24.953 21.17-40.739 24.861-4.583.971-9.166 1.165-13.58 1.748m40.4-78.466c-.17-2.525-.17-4.467-.51-6.41-3.055-19.228-18.502-30.104-34.627-25.831-15.787 4.078-25.971 15.538-29.706 33.795-3.055 15.149 3.395 30.492 15.617 36.708 9.336 4.661 18.672 4.078 27.668-1.166 13.41-7.963 20.709-20.393 21.558-37.096"/></g><defs><clipPath id="a"><path fill="#fff" d="M0 0h349v170H0z"/></clipPath></defs></svg>