<svg width="181" height="200" viewBox="0 0 181 200" fill="none" xmlns="http://www.w3.org/2000/svg">
<g clip-path="url(#clip0_11_10)">
<g clip-path="url(#clip1_11_10)">
<path fill-rule="evenodd" clip-rule="evenodd" d="M85.0919 1.36309C88.3192 -0.451191 92.2926 -0.451191 95.5151 1.36309C111.461 10.3298 159.447 37.3202 175.398 46.2869C178.625 48.0964 180.612 51.4488 180.612 55.0773C180.612 73.0107 180.612 126.987 180.612 144.92C180.612 148.549 178.625 151.901 175.398 153.715C159.452 162.682 111.466 189.672 95.5151 198.639C92.2879 200.453 88.3144 200.453 85.0919 198.639C69.1458 189.672 21.1601 162.682 5.20922 153.715C1.98673 151.901 0 148.553 0 144.925C0 126.992 0 73.0154 0 55.0821C0 51.4535 1.98673 48.1012 5.21398 46.2869C21.1553 37.3202 69.1506 10.3298 85.0919 1.36309Z" fill="#004482"/>
<path fill-rule="evenodd" clip-rule="evenodd" d="M1.44489 149.544C0.180612 147.849 0 146.239 0 144.073C0 126.244 0 72.5775 0 54.7442C0 51.1346 1.98198 47.8013 5.19972 46.0013C21.0888 37.087 68.9129 10.2537 84.802 1.33467C88.0197 -0.470087 92.3782 -0.431992 95.5959 1.37277C111.485 10.287 159.148 36.8918 175.037 45.8061C176.32 46.5299 177.299 47.4013 178.174 48.5489L1.44489 149.544Z" fill="#659AD2"/>
<path fill-rule="evenodd" clip-rule="evenodd" d="M90.3059 33.3347C127.032 33.3347 156.847 63.2061 156.847 100.001C156.847 136.796 127.032 166.668 90.3059 166.668C53.5799 166.668 23.7647 136.796 23.7647 100.001C23.7647 63.2061 53.5799 33.3347 90.3059 33.3347ZM90.3059 66.668C108.667 66.668 123.577 81.6013 123.577 100.001C123.577 118.396 108.667 133.335 90.3059 133.335C71.9453 133.335 57.0353 118.396 57.0353 100.001C57.0353 81.6013 71.9405 66.668 90.3059 66.668Z" fill="white"/>
<path fill-rule="evenodd" clip-rule="evenodd" d="M178.164 48.5966C180.617 50.8966 180.569 54.3632 180.569 57.0918C180.569 75.1632 180.417 126.563 180.612 144.635C180.631 146.52 180.008 148.506 179.077 150.001L88.3715 100.001L178.164 48.5966Z" fill="#00599C"/>
<rect x="134.694" y="89.7959" width="7.14286" height="19.3878" fill="white"/>
<rect x="128.571" y="103.061" width="7.14286" height="19.3878" transform="rotate(-90 128.571 103.061)" fill="white"/>
<rect x="160.204" y="89.7959" width="7.14286" height="19.3878" fill="white"/>
<rect x="154.082" y="103.061" width="7.14286" height="19.3878" transform="rotate(-90 154.082 103.061)" fill="white"/>
</g>
</g>
<defs>
<clipPath id="clip0_11_10">
<rect width="181" height="200" fill="white"/>
</clipPath>
<clipPath id="clip1_11_10">
<rect width="180.612" height="200" fill="white"/>
</clipPath>
</defs>
</svg>
