<svg width="349" height="170" viewBox="0 0 349 170" fill="none" xmlns="http://www.w3.org/2000/svg">
<g clip-path="url(#clip0_14_8)">
<path d="M26.2373 55.3586C25.5583 55.3586 25.3886 54.9702 25.7281 54.3875L29.2927 49.1435C29.6322 48.5609 30.4809 48.1724 31.1599 48.1724H91.7587C92.4377 48.1724 92.6075 48.7551 92.268 49.3378L89.3823 54.3875C89.0428 54.9702 88.1941 55.5529 87.6849 55.5529L26.2373 55.3586Z" fill="#2DBCAF"/>
<path d="M0.60589 73.2271C-0.0730882 73.2271 -0.242835 72.8387 0.0966545 72.256L3.66129 67.012C4.00078 66.4293 4.8495 66.0409 5.52848 66.0409H82.932C83.611 66.0409 83.9505 66.6236 83.7807 67.2062L82.4228 71.8676C82.253 72.6444 81.5741 73.0329 80.8951 73.0329L0.60589 73.2271Z" fill="#2DBCAF"/>
<path d="M41.6841 91.0955C41.0051 91.0955 40.8354 90.5129 41.1748 89.9302L43.5513 85.0746C43.8908 84.492 44.5697 83.9093 45.2487 83.9093H79.1976C79.8766 83.9093 80.2161 84.492 80.2161 85.2689L79.8766 89.9302C79.8766 90.7071 79.1976 91.2897 78.6884 91.2897L41.6841 91.0955Z" fill="#2DBCAF"/>
<path d="M217.879 51.8627C207.185 54.9702 199.886 57.3009 189.362 60.4084C186.816 61.1853 186.646 61.3795 184.439 58.4662C181.893 55.1644 180.026 53.028 176.461 51.0858C165.767 45.0649 155.413 46.8129 145.738 53.9991C134.195 62.5449 128.254 75.1693 128.424 90.9013C128.593 106.439 137.929 119.258 151.339 121.394C162.882 123.142 172.557 118.481 180.196 108.576C181.723 106.439 183.081 104.108 184.779 101.389C178.668 101.389 171.029 101.389 152.018 101.389C148.453 101.389 147.605 98.8644 148.793 95.5627C151 89.5418 155.073 79.4422 157.45 74.3924C157.959 73.2271 159.147 71.2849 161.694 71.2849C170.35 71.2849 202.262 71.2849 223.481 71.2849C223.141 76.5289 223.141 81.7729 222.462 87.0169C220.595 101.001 216.012 113.82 208.543 125.084C196.321 143.536 180.365 154.995 160.166 158.102C143.531 160.627 128.084 156.937 114.504 145.284C101.943 134.407 94.8141 120.035 92.9469 102.166C90.7403 80.996 96.1721 61.9622 107.375 45.2591C119.427 27.1964 135.383 15.7373 154.904 11.6586C170.86 8.35687 186.137 10.4933 199.886 21.1755C208.883 27.9733 215.333 37.296 219.576 48.5609C220.595 50.3089 219.916 51.28 217.879 51.8627Z" fill="#2DBCAF"/>
<path d="M274.064 159.268C258.618 158.879 244.529 153.829 232.647 142.176C222.632 132.271 216.351 119.646 214.314 104.691C211.259 82.744 216.521 63.3218 228.064 46.036C240.455 27.3907 255.393 17.6795 275.592 13.6009C292.906 10.1049 309.202 12.0471 323.969 23.5062C337.379 33.9942 345.697 48.1724 347.903 66.8178C350.789 93.0378 344.169 114.402 328.383 132.659C317.18 145.672 303.43 153.829 287.644 157.52C283.061 158.491 278.478 158.685 274.064 159.268ZM314.464 80.8018C314.294 78.2769 314.294 76.3346 313.954 74.3924C310.899 55.1644 295.452 44.288 279.327 48.5609C263.54 52.6395 253.356 64.0986 249.621 82.3555C246.566 97.5049 253.016 112.848 265.238 119.064C274.574 123.725 283.91 123.142 292.906 117.898C306.316 109.935 313.615 97.5049 314.464 80.8018Z" fill="#2DBCAF"/>
</g>
<defs>
<clipPath id="clip0_14_8">
<rect width="349" height="170" fill="white"/>
</clipPath>
</defs>
</svg>
