<svg width="200" height="200" viewBox="0 0 200 200" fill="none" xmlns="http://www.w3.org/2000/svg">
<g clip-path="url(#clip0_14_30)">
<path d="M100 9C49.8316 9 9 49.8509 9 100C9 150.149 49.8509 191 100 191C150.149 191 191 150.149 191 100C191 49.8509 150.149 9 100 9ZM99.8653 17.0855C101.421 17.1258 102.9 17.7743 103.986 18.8927C105.072 20.0112 105.68 21.5111 105.679 23.0726C105.679 24.6604 105.048 26.1833 103.926 27.3061C102.803 28.4289 101.28 29.0597 99.692 29.0597C98.1041 29.0597 96.5813 28.4289 95.4585 27.3061C94.3357 26.1833 93.7049 24.6604 93.7049 23.0726C93.7046 22.2715 93.865 21.4786 94.1766 20.7407C94.4883 20.0027 94.9448 19.3349 95.5193 18.7766C96.0937 18.2183 96.7743 17.781 97.5208 17.4905C98.2673 17.2 99.0646 17.0623 99.8653 17.0855ZM113.572 26.942C124.082 28.9107 134.038 33.1437 142.748 39.347C151.458 45.5503 158.713 53.5753 164.01 62.8646L156.945 78.8045C155.732 81.5574 156.983 84.7916 159.717 86.0237L173.308 92.0493C173.73 96.2977 173.781 100.575 173.462 104.832H165.897C165.146 104.832 164.838 105.333 164.838 106.064V109.529C164.838 117.692 160.237 119.482 156.194 119.925C152.344 120.368 148.089 118.308 147.55 115.959C145.279 103.196 141.505 100.481 135.538 95.7648C142.949 91.0675 150.65 84.1178 150.65 74.8388C150.65 64.809 143.777 58.4946 139.099 55.3952C132.515 51.0637 125.238 50.1974 123.275 50.1974H45.1151C55.9227 38.1239 70.4092 29.9502 86.3317 26.942L95.553 36.6061C97.6321 38.7815 101.078 38.8777 103.253 36.7794L113.572 26.942ZM28.4821 71.2581C30.0398 71.3032 31.5185 71.9538 32.6041 73.0718C33.6897 74.1897 34.2966 75.6869 34.296 77.2452C34.296 78.8331 33.6652 80.3559 32.5424 81.4787C31.4196 82.6015 29.8967 83.2323 28.3089 83.2323C26.721 83.2323 25.1981 82.6015 24.0753 81.4787C22.9525 80.3559 22.3218 78.8331 22.3218 77.2452C22.3214 76.4442 22.4818 75.6512 22.7935 74.9133C23.1052 74.1754 23.5617 73.5075 24.1362 72.9492C24.7106 72.3909 25.3912 71.9536 26.1377 71.6631C26.8842 71.3726 27.6814 71.2349 28.4821 71.2581ZM171.229 71.5276C172.787 71.5727 174.265 72.2233 175.351 73.3413C176.437 74.4592 177.044 75.9564 177.043 77.5147C177.043 79.1026 176.412 80.6254 175.289 81.7482C174.167 82.871 172.644 83.5018 171.056 83.5018C169.468 83.5018 167.945 82.871 166.822 81.7482C165.7 80.6254 165.069 79.1026 165.069 77.5147C165.068 76.7137 165.229 75.9207 165.54 75.1828C165.852 74.4449 166.309 73.777 166.883 73.2187C167.458 72.6605 168.138 72.2231 168.885 71.9326C169.631 71.6422 170.428 71.5044 171.229 71.5276ZM39.7633 72.4902H50.1974V119.54H29.1367C26.5356 110.406 25.725 100.856 26.7495 91.414L39.6478 85.6772C42.4007 84.4451 43.652 81.2302 42.4199 78.4773L39.7633 72.4902ZM83.3093 72.9907H108.162C109.452 72.9907 117.23 74.473 117.23 80.3061C117.23 85.1381 111.262 86.8707 106.353 86.8707H83.29L83.3093 72.9907ZM83.3093 106.796H102.349C104.081 106.796 111.647 107.296 114.053 116.96C114.804 119.925 116.479 129.589 117.615 132.688C118.751 136.154 123.352 143.084 128.261 143.084H159.332C157.25 145.873 154.972 148.51 152.517 150.977L139.869 148.263C136.924 147.627 134.017 149.514 133.381 152.459L130.378 166.474C120.721 170.849 110.233 173.088 99.6316 173.038C89.0298 172.988 78.5636 170.651 68.948 166.185L65.9448 152.171C65.3095 149.225 62.4218 147.338 59.4764 147.974L47.0979 150.63C44.8009 148.261 42.6656 145.74 40.7066 143.084H100.905C101.579 143.084 102.041 142.968 102.041 142.333V121.041C102.041 120.425 101.579 120.291 100.905 120.291H83.29L83.3093 106.796ZM55.5299 155.559C57.0876 155.604 58.5663 156.254 59.6519 157.372C60.7375 158.49 61.3444 159.987 61.3438 161.546C61.3438 163.134 60.713 164.657 59.5902 165.779C58.4674 166.902 56.9446 167.533 55.3567 167.533C53.7688 167.533 52.246 166.902 51.1232 165.779C50.0004 164.657 49.3696 163.134 49.3696 161.546C49.3692 160.745 49.5297 159.952 49.8413 159.214C50.153 158.476 50.6095 157.808 51.184 157.25C51.7584 156.692 52.439 156.254 53.1855 155.964C53.932 155.673 54.7292 155.536 55.5299 155.559ZM144.181 155.828C145.739 155.873 147.218 156.524 148.303 157.642C149.389 158.76 149.996 160.257 149.995 161.815C149.995 163.403 149.364 164.926 148.242 166.049C147.119 167.172 145.596 167.802 144.008 167.802C142.42 167.802 140.897 167.172 139.775 166.049C138.652 164.926 138.021 163.403 138.021 161.815C138.021 161.014 138.181 160.221 138.493 159.483C138.804 158.745 139.261 158.078 139.835 157.519C140.41 156.961 141.09 156.524 141.837 156.233C142.583 155.943 143.381 155.805 144.181 155.828Z" fill="#111111"/>
<path fill-rule="evenodd" clip-rule="evenodd" d="M186.182 100C186.182 122.857 177.102 144.778 160.94 160.94C144.778 177.102 122.857 186.182 100 186.182C77.1431 186.182 55.2223 177.102 39.0601 160.94C22.8978 144.778 13.8179 122.857 13.8179 100C13.8179 77.1431 22.8978 55.2223 39.0601 39.0601C55.2223 22.8978 77.1431 13.8179 100 13.8179C122.857 13.8179 144.778 22.8978 160.94 39.0601C177.102 55.2223 186.182 77.1431 186.182 100ZM184.56 91.6772L198 100L184.56 108.323L196.108 119.117L181.316 124.659L190.546 137.501L174.924 140.05L181.49 154.455L165.674 153.895L169.305 169.305L153.895 165.674L154.455 181.49L140.05 174.924L137.501 190.546L124.659 181.316L119.117 196.108L108.323 184.56L100 198L91.6772 184.56L80.8828 196.108L75.3407 181.316L62.4993 190.546L59.9503 174.924L45.5448 181.49L46.1048 165.674L30.6952 169.305L34.3255 153.895L18.5103 154.455L25.0759 140.05L9.45379 137.501L18.6841 124.659L3.89242 119.117L15.44 108.323L2 100L15.44 91.6772L3.89242 80.8828L18.6841 75.3407L9.45379 62.4993L25.0759 59.9503L18.5103 45.5448L34.3255 46.1048L30.6952 30.6952L46.1048 34.3255L45.5448 18.5103L59.9503 25.0759L62.4993 9.45379L75.3407 18.6841L80.8828 3.89241L91.6772 15.44L100 2L108.323 15.44L119.117 3.89241L124.659 18.6841L137.501 9.45379L140.05 25.0759L154.455 18.5103L153.895 34.3255L169.305 30.6952L165.674 46.1048L181.49 45.5448L174.924 59.9503L190.546 62.4993L181.316 75.3407L196.108 80.8828L184.56 91.6772Z" fill="#111111" stroke="#111111" stroke-width="3" stroke-linecap="round" stroke-linejoin="round"/>
</g>
<defs>
<clipPath id="clip0_14_30">
<rect width="200" height="200" fill="white"/>
</clipPath>
</defs>
</svg>
