<svg width="219" height="200" viewBox="0 0 219 200" fill="none" xmlns="http://www.w3.org/2000/svg">
<g clip-path="url(#clip0_14_33)">
<path d="M65.7142 31.4286L40 62.8572L27.1428 42.8572L65.7142 31.4286Z" fill="#F7A41D"/>
<path d="M65.7143 31.4286L47.1429 47.1429L40 62.8572H31.4286V135.714H44.2857L28.5714 142.857L17.1429 167.143H0V31.4286H65.7143Z" fill="#F7A41D"/>
<path d="M44.2857 135.714L17.1428 167.143L5.71423 151.429L44.2857 135.714Z" fill="#F7A41D"/>
<path d="M80 31.4286L88.5715 51.4286L52.8572 62.8572L80 31.4286Z" fill="#F7A41D"/>
<path d="M80 31.4286H158.571V62.8572H52.8572L80 45.7143V31.4286Z" fill="#F7A41D"/>
<path d="M165.714 135.714L138.572 167.143L128.572 148.571L165.714 135.714Z" fill="#F7A41D"/>
<path d="M165.714 135.714L142.857 148.571L138.571 167.143H60V135.714H165.714Z" fill="#F7A41D"/>
<path d="M214.286 0L74.2858 167.143L4.28577 200L144.286 31.4286L214.286 0Z" fill="#F7A41D"/>
<path d="M201.429 31.4286L200 57.1429L174.286 64.2857L201.429 31.4286Z" fill="#F7A41D"/>
<path d="M218.571 31.4286V167.143H151.429L171.429 150L178.571 135.714H187.143V64.2857H174.286L188.571 51.4286L201.429 31.4286H218.571Z" fill="#F7A41D"/>
<path d="M178.571 135.714L185.714 157.143L151.429 167.143L178.571 135.714Z" fill="#F7A41D"/>
</g>
<defs>
<clipPath id="clip0_14_33">
<rect width="218.571" height="200" fill="white"/>
</clipPath>
</defs>
</svg>
