<?xml version="1.0" encoding="UTF-8" standalone="no"?>
<svg
   xml:space="preserve"
   width="92"
   height="92"
   viewBox="0 0 56.925 56.925"
   version="1.1"
   id="svg1"
   xmlns="http://www.w3.org/2000/svg"
   xmlns:svg="http://www.w3.org/2000/svg"><defs
     id="defs1" /><path
     id="path1"
     style="fill:#121827;fill-opacity:1"
     d="m 252.75938,90.028125 c -12.29449,-0.399846 -24.65823,3.469074 -33.65541,9.677637 -20.565,14.191998 -14.26008,49.386188 -13.26808,66.084188 0.992,16.613 0.45464,28.50121 -1.44536,32.77321 -0.79694,1.81953 -3.6283,5.70281 -7.27409,10.5355 -2.058,2.72798 -0.96749,4.93083 2.44977,4.93083 h 0.20061 c 3.41726,0 7.61612,-2.3868 8.97198,-5.52125 3.31216,-7.65698 5.05095,-16.37693 3.46949,-21.17684 0,0 14.71323,17.60423 24.95423,14.71223 10.257,-2.96 33.31078,-20.09398 36.72378,-17.15098 1.26584,1.09713 6.12639,10.80024 11.86468,23.48805 1.40817,3.11357 5.29513,5.64879 8.71239,5.64879 h 19.95468 c 3.41726,0 4.60014,-2.27037 2.62998,-5.06253 -2.51867,-3.56951 -5.0014,-7.05657 -7.36124,-10.33733 -16.159,-22.532 -2.43897,-48.5446 -17.15097,-81.7886 -8.27663,-18.727877 -23.96925,-26.298817 -39.77644,-26.812905 z m 7.45642,41.004275 c 8.407,0 15.18475,8.34054 15.18475,18.59754 0,7.281 -3.41472,13.58741 -8.40872,16.61441 -1.261,-0.521 -2.57225,-1.11007 -4.01825,-1.71607 3.027,-1.496 5.12765,-5.31272 5.12765,-9.71872 0,-5.767 -3.54687,-10.50908 -8.00387,-10.50908 -4.338,0 -7.95432,4.74108 -7.95432,10.50908 0,2.103 0.5219,4.20354 1.3789,5.85154 -2.28875,-0.92064 -4.58703,-1.81739 -6.89447,-2.69012 -1.0466,-2.65582 -1.58288,-5.48522 -1.58072,-8.33983 0.001,-10.257 6.76005,-18.59875 15.16905,-18.59875 z m -38.945,2.96081 c 6.625,0 12.02333,7.88637 12.02333,17.60537 0,1.766 -0.20186,3.41198 -0.52086,5.05998 -1.648,0.521 -3.29549,1.37999 -4.87749,2.75899 -0.773,0.656 -1.49734,1.24376 -2.15234,1.89976 1.042,-1.967 1.44626,-4.7925 0.97526,-7.7525 -0.908,-5.246 -4.45519,-9.13033 -7.93619,-8.60933 -3.498,0.589 -5.58314,5.39811 -4.74214,10.71211 0.925,5.381 4.40511,9.265 7.95311,8.677 0.202,-0.067 0.38654,-0.13503 0.58854,-0.20303 -1.698,1.648 -3.27904,3.09504 -4.92704,4.27204 -4.792,-2.237 -8.33983,-8.92902 -8.33983,-16.81502 0.001,-9.786 5.31365,-17.60537 11.95565,-17.60537 z m 18.12744,29.08971 c 4.137,0.723 15.50316,5.64976 19.70816,7.16276 4.204,1.446 8.8603,4.13579 8.4063,6.82679 -0.521,2.774 -2.6893,2.77418 -8.4063,6.25518 -5.65,3.414 -17.99188,11.03101 -21.94388,11.55201 -3.935,0.521 -6.17114,-1.69917 -10.37614,-4.40617 -4.204,-2.758 -12.08966,-9.19766 -10.10666,-12.61066 0,0 6.17091,-4.72484 8.86191,-7.14584 2.691,-2.506 9.65261,-8.40807 13.85661,-7.63407 z"
     transform="matrix(0.46688695,0,0,0.45896281,-91.545722,-41.306578)" /></svg>
