<svg width="100" height="100" viewBox="0 0 100 100" fill="none" xmlns="http://www.w3.org/2000/svg">
<rect width="100" height="100" rx="10" fill="#EEEEEE"/>
<path d="M10 37.321C10 35.8837 10.0774 34.6467 10.2321 33.6275C10.3869 32.6083 10.6534 31.7285 11.0402 30.9794C11.4271 30.2302 11.8655 29.5594 12.3727 28.9671C12.8714 28.366 13.5075 27.7475 14.2813 27.1029C15.8201 25.8137 17.7458 24.8032 20.0584 24.0802C22.3709 23.3572 24.8726 23 27.5721 23C30.2715 23 32.7732 23.3572 35.0858 24.0802C37.3983 24.8032 39.324 25.805 40.8629 27.1029C41.628 27.7475 42.29 28.3747 42.823 28.9671C43.3646 29.5594 43.8202 30.2389 44.2071 30.9794C44.5939 31.7285 44.8432 32.6083 44.955 33.6275C45.0668 34.6467 45.1269 35.875 45.1269 37.321C45.1269 38.9152 45.084 40.2567 45.0152 41.3455C44.9378 42.4431 44.7057 43.4101 44.3188 44.255C43.932 45.1 43.3388 45.8579 42.5307 46.5286C41.7226 47.1994 40.6222 47.905 39.2381 48.6541C40.6222 49.351 41.7226 50.0479 42.5307 50.7448C43.3388 51.4417 43.932 52.2605 44.3188 53.21C44.7057 54.1508 44.9378 55.3094 45.0152 56.677C45.0925 58.0447 45.1269 59.7259 45.1269 61.7121C45.1269 63.3497 45.0668 64.7087 44.955 65.7801C44.8432 66.8516 44.6627 67.7837 44.4392 68.5764C44.2071 69.3691 43.8804 70.0398 43.4591 70.5886C43.0379 71.1374 42.5135 71.7037 41.9031 72.3047C40.5964 73.594 38.7394 74.7003 36.3581 75.6237C33.9682 76.547 31.0452 77 27.5807 77C24.1161 77 21.1846 76.5383 18.7946 75.6237C16.4047 74.7003 14.5564 73.594 13.2496 72.3047C12.6307 71.7037 12.1148 71.1374 11.6936 70.5886C11.2723 70.0398 10.9457 69.3691 10.7135 68.5764C10.4814 67.7837 10.3095 66.8516 10.1977 65.7801C10.086 64.7087 10.0258 63.3584 10.0258 61.7121C10.0258 59.7259 10.0602 58.0447 10.1376 56.677C10.2149 55.3094 10.447 54.1508 10.8339 53.21C11.2272 52.2554 11.8403 51.4101 12.6221 50.7448C13.4302 50.0479 14.5306 49.351 15.9147 48.6541C14.5306 47.905 13.4302 47.1994 12.6221 46.5286C11.8139 45.8579 11.2122 45.1 10.8339 44.255C10.447 43.4101 10.2149 42.4431 10.1376 41.3455C10.0602 40.2567 10.0258 38.9064 10.0258 37.321H10ZM33.3406 34.3418C33.3406 33.2965 32.7646 32.4167 31.604 31.6937C30.452 30.9706 29.1023 30.6135 27.5635 30.6135C26.0246 30.6135 24.6749 30.9794 23.5229 31.6937C22.3709 32.4167 21.7864 33.2965 21.7864 34.3418V42.0947C21.7864 43.14 22.3623 44.0198 23.5229 44.7429C24.6749 45.4659 26.0246 45.823 27.5635 45.823C29.1023 45.823 30.452 45.4659 31.604 44.7429C32.756 44.0198 33.3406 43.14 33.3406 42.0947V34.3418ZM33.3406 55.2223C33.3406 54.177 32.7646 53.2971 31.604 52.5741C30.452 51.8511 29.1023 51.494 27.5635 51.494C26.0246 51.494 24.6749 51.8598 23.5229 52.5741C22.3709 53.2971 21.7864 54.177 21.7864 55.2223V65.6669C21.7864 66.7122 22.3623 67.592 23.5229 68.3151C24.6749 69.0381 26.0246 69.3952 27.5635 69.3952C29.1023 69.3952 30.452 69.0381 31.604 68.3151C32.756 67.592 33.3406 66.7122 33.3406 65.6669V55.2223ZM73.5483 76.547V68.6374H50.0873V61.4769L67.0748 23.4443H79.5575L61.8823 61.4769H73.5483V46.337H85.3346V61.4769H91V68.6374H85.3346V76.547H73.5483Z" fill="#111111"/>
</svg>
