<svg width="235" height="385" viewBox="0 0 235 385" fill="none" xmlns="http://www.w3.org/2000/svg">
<g clip-path="url(#clip0_23_2)">
<path fill-rule="evenodd" clip-rule="evenodd" d="M117.5 385C182.393 385 235 332.393 235 267.5C235 202.607 182.393 150 117.5 150C52.6065 150 0 202.607 0 267.5C0 332.393 52.6065 385 117.5 385ZM117.065 349.315C162.49 349.315 199.315 312.49 199.315 267.065C199.315 221.639 162.49 184.815 117.065 184.815C71.6394 184.815 34.8148 221.639 34.8148 267.065C34.8148 312.49 71.6394 349.315 117.065 349.315Z" fill="#111111"/>
<mask id="path-2-inside-1_23_2" fill="white">
<path fill-rule="evenodd" clip-rule="evenodd" d="M199.813 144L118.406 0L37 144H40.1257C62.2049 128.259 89.2243 119 118.406 119C147.588 119 174.608 128.259 196.687 144H199.813Z"/>
</mask>
<path fill-rule="evenodd" clip-rule="evenodd" d="M199.813 144L118.406 0L37 144H40.1257C62.2049 128.259 89.2243 119 118.406 119C147.588 119 174.608 128.259 196.687 144H199.813Z" fill="#111111"/>
<path d="M118.406 0L127.112 -4.92126L118.406 -20.32L109.701 -4.92126L118.406 0ZM199.813 144V154H216.953L208.518 139.079L199.813 144ZM37 144L28.2948 139.079L19.8594 154H37V144ZM40.1257 144V154H43.3253L45.9307 152.143L40.1257 144ZM196.687 144L190.882 152.143L193.487 154H196.687V144ZM109.701 4.92126L191.108 148.921L208.518 139.079L127.112 -4.92126L109.701 4.92126ZM45.7052 148.921L127.112 4.92126L109.701 -4.92126L28.2948 139.079L45.7052 148.921ZM40.1257 134H37V154H40.1257V134ZM45.9307 152.143C66.3713 137.57 91.3732 129 118.406 129V109C87.0755 109 58.0385 118.948 34.3206 135.857L45.9307 152.143ZM118.406 129C145.44 129 170.441 137.57 190.882 152.143L202.492 135.857C178.774 118.948 149.737 109 118.406 109V129ZM199.813 134H196.687V154H199.813V134Z" fill="#111111" mask="url(#path-2-inside-1_23_2)"/>
</g>
<defs>
<clipPath id="clip0_23_2">
<rect width="235" height="385" fill="white"/>
</clipPath>
</defs>
</svg>
