<svg width="183" height="214" viewBox="0 0 183 214" fill="none" xmlns="http://www.w3.org/2000/svg">
<g clip-path="url(#clip0_17_7)">
<path d="M119.752 125.352C120.072 125.864 120.232 126.376 120.232 126.888C120.232 128.424 119.528 129.512 118.12 130.152C117.608 130.408 117 130.536 116.296 130.536C115.784 130.536 115.304 130.408 114.856 130.152C114.408 129.96 114.056 129.576 113.8 129C113.672 128.616 113.608 128.36 113.608 128.232C113.608 127.528 113.864 126.888 114.376 126.312C114.952 125.736 115.336 125.224 115.528 124.776C115.72 124.136 116.168 123.816 116.872 123.816C117.384 123.816 117.928 123.976 118.504 124.296C119.08 124.616 119.496 124.968 119.752 125.352ZM150.509 122.472C149.677 123.304 148.941 124.136 148.301 124.968C147.661 125.8 146.253 126.76 144.077 127.848C143.821 128.232 143.245 128.808 142.349 129.576C141.517 130.344 139.853 130.792 137.357 130.92C135.693 130.984 134.349 130.568 133.325 129.672C132.365 128.84 131.629 127.816 131.117 126.6C130.605 125.384 130.157 124.264 129.773 123.24C129.709 123.304 129.421 123.56 128.909 124.008C128.397 124.456 127.885 124.904 127.373 125.352C126.797 125.8 126.445 126.088 126.317 126.216C126.253 126.28 126.125 126.312 125.933 126.312C125.613 126.312 125.357 126.152 125.165 125.832C124.909 125.448 124.909 125.128 125.165 124.872C126.381 123.656 127.309 122.728 127.949 122.088C128.589 121.384 129.165 120.712 129.677 120.072C130.189 119.432 130.797 118.632 131.501 117.672C132.589 116.008 133.741 114.536 134.957 113.256C136.237 111.912 137.037 110.92 137.357 110.28C137.421 110.216 137.453 110.088 137.453 109.896C137.453 109.704 137.357 109.544 137.165 109.416C137.037 109.288 136.941 109.128 136.877 108.936C136.621 107.912 136.493 106.952 136.493 106.056C136.493 104.648 137.037 102.984 138.125 101.064C138.573 100.744 139.181 100.488 139.949 100.296C140.717 100.04 141.325 100.008 141.773 100.2C142.285 100.456 142.605 100.744 142.733 101.064C142.925 101.384 143.085 101.8 143.213 102.312C143.213 102.376 143.213 102.44 143.213 102.504C143.277 102.568 143.309 102.664 143.309 102.792C143.309 103.176 143.245 103.592 143.117 104.04C142.989 104.488 142.829 104.968 142.637 105.48C142.637 105.736 142.317 106.216 141.677 106.92C141.101 107.624 140.909 108.072 141.101 108.264C141.485 109.096 142.125 110.184 143.021 111.528C144.109 113.064 144.845 114.472 145.229 115.752C145.677 117.032 145.901 118.184 145.901 119.208C145.901 120.424 145.709 121.48 145.325 122.376C145.005 123.272 144.749 124.04 144.557 124.68C145.133 124.744 145.805 124.456 146.573 123.816C147.341 123.112 148.077 122.344 148.781 121.512C149.549 120.616 150.125 119.976 150.509 119.592C150.893 119.208 151.181 119.016 151.373 119.016C151.693 119.016 151.693 119.496 151.373 120.456C151.117 121.416 150.829 122.088 150.509 122.472ZM141.197 104.04C141.197 103.784 141.165 103.496 141.101 103.176C141.037 102.856 140.845 102.664 140.525 102.6H140.429C140.109 102.6 139.853 102.76 139.661 103.08C139.469 103.336 139.309 103.592 139.181 103.848C138.989 104.36 138.797 104.808 138.605 105.192C138.477 105.512 138.541 105.832 138.797 106.152C139.053 106.28 139.501 106.024 140.141 105.384C140.845 104.68 141.197 104.232 141.197 104.04ZM141.389 119.4C141.389 118.44 141.197 117.416 140.813 116.328C140.493 115.176 140.109 114.152 139.661 113.256C139.277 112.36 138.989 111.784 138.797 111.528C138.797 111.528 138.413 112.008 137.645 112.968C136.877 113.864 136.045 114.856 135.149 115.944C134.573 116.584 133.997 117.416 133.421 118.44C132.845 119.464 132.493 120.36 132.365 121.128C132.365 121.128 132.653 121.512 133.229 122.28C133.805 122.984 134.509 123.656 135.341 124.296C136.237 124.936 137.101 125.16 137.933 124.968C139.213 124.648 140.109 123.912 140.621 122.76C141.133 121.544 141.389 120.424 141.389 119.4ZM138.125 126.888H137.261C137.005 126.888 136.717 126.888 136.397 126.888C136.077 126.824 135.757 126.76 135.437 126.696C135.117 126.568 134.637 126.312 133.997 125.928C133.357 125.544 133.037 125.352 133.037 125.352C133.037 125.352 133.005 125.416 132.941 125.544C132.941 125.672 132.941 125.832 132.941 126.024C132.941 126.28 132.973 126.568 133.037 126.888C133.165 127.208 133.389 127.528 133.709 127.848C134.221 128.232 134.669 128.552 135.053 128.808C135.437 129 135.949 129 136.589 128.808C137.037 128.68 137.389 128.328 137.645 127.752C137.965 127.176 138.125 126.888 138.125 126.888ZM182.664 123.912C181.512 125.576 180.232 126.856 178.824 127.752C177.48 128.584 176.2 129 174.984 129C173.768 129 172.776 128.584 172.008 127.752C171.112 126.216 170.472 124.648 170.088 123.048C169.768 121.384 169.48 119.24 169.224 116.616C169.032 113.992 168.616 110.472 167.976 106.056C167.976 106.056 167.784 105.832 167.4 105.384C167.016 104.872 166.568 104.616 166.056 104.616C165.736 104.616 165.384 104.808 165 105.192C164.616 105.512 164.232 106.152 163.848 107.112C162.888 109.544 162.12 112.072 161.544 114.696C161.032 117.32 160.552 119.752 160.104 121.992C159.656 124.232 159.112 125.992 158.472 127.272C158.024 128.168 157.448 128.616 156.744 128.616C156.168 128.616 155.624 128.328 155.112 127.752C155.112 127.752 155.144 127.176 155.208 126.024C155.336 124.808 155.496 123.336 155.688 121.608C155.88 119.816 156.04 118.088 156.168 116.424C156.04 116.488 155.688 116.872 155.112 117.576C154.536 118.216 153.896 118.856 153.192 119.496C152.488 120.072 151.848 120.328 151.272 120.264C150.888 119.816 151.08 119.144 151.848 118.248C152.616 117.288 153.48 116.232 154.44 115.08C155.464 113.864 156.168 112.68 156.552 111.528C157.448 108.84 158.056 105.96 158.376 102.888C158.76 99.816 159.176 96.904 159.624 94.152C160.584 88.2 161.544 82.984 162.504 78.504C163.528 74.024 164.744 70.568 166.152 68.136C167.56 65.64 169.352 64.392 171.528 64.392C172.424 64.392 173.128 64.744 173.64 65.448C174.152 66.088 174.408 67.304 174.408 69.096C174.408 69.352 174.408 69.672 174.408 70.056C174.408 70.44 174.376 70.824 174.312 71.208C173.928 75.496 173.128 80.232 171.912 85.416C170.696 90.536 168.52 96.104 165.384 102.12C166.088 101.928 166.792 101.832 167.496 101.832C168.776 101.832 169.96 102.056 171.048 102.504C172.136 102.888 172.872 103.336 173.256 103.848C173.64 104.36 173.896 104.936 174.024 105.576C174.152 106.216 174.216 106.952 174.216 107.784C174.216 109.384 174.024 111.368 173.64 113.736C173.32 116.104 173.16 118.888 173.16 122.088C173.16 123.176 173.512 124.008 174.216 124.584C174.984 125.096 175.88 125.352 176.904 125.352C177.8 125.352 178.664 125.16 179.496 124.776C180.328 124.392 181 123.848 181.512 123.144C181.576 123.016 181.768 122.952 182.088 122.952C182.28 122.952 182.44 123.048 182.568 123.24C182.76 123.368 182.792 123.592 182.664 123.912ZM172.008 68.328C172.008 67.752 171.88 67.464 171.624 67.464C171.24 67.464 170.632 68.008 169.8 69.096C169.032 70.12 168.264 71.464 167.496 73.128C166.728 74.792 166.088 76.552 165.576 78.408C164.808 81.352 164.168 84.008 163.656 86.376C163.144 88.68 162.728 91.432 162.408 94.632C162.344 95.592 162.28 96.68 162.216 97.896C162.152 99.048 162.088 100.04 162.024 100.872C162.024 101.704 162.024 102.12 162.024 102.12C162.984 100.584 164.008 99.016 165.096 97.416C166.184 95.816 167.08 93.928 167.784 91.752C168.744 88.936 169.512 86.024 170.088 83.016C170.728 79.944 171.208 77.096 171.528 74.472C171.848 71.848 172.008 69.8 172.008 68.328Z" fill="#111111"/>
</g>
<defs>
<clipPath id="clip0_17_7">
<rect width="183" height="214" fill="white"/>
</clipPath>
</defs>
</svg>
