<svg xmlns="http://www.w3.org/2000/svg" width="235" height="385" fill="none"><g clip-path="url(#a)"><path fill="#111" fill-rule="evenodd" d="M117.5 385c64.893 0 117.5-52.607 117.5-117.5S182.393 150 117.5 150 0 202.607 0 267.5 52.607 385 117.5 385m-.435-35.685c45.425 0 82.25-36.825 82.25-82.25 0-45.426-36.825-82.25-82.25-82.25-45.426 0-82.25 36.824-82.25 82.25 0 45.425 36.824 82.25 82.25 82.25" clip-rule="evenodd"/><mask id="b" fill="#fff"><path fill-rule="evenodd" d="M199.813 144 118.406 0 37 144h3.126c22.079-15.741 49.098-25 78.28-25s56.202 9.259 78.281 25z" clip-rule="evenodd"/></mask><path fill="#111" fill-rule="evenodd" d="M199.813 144 118.406 0 37 144h3.126c22.079-15.741 49.098-25 78.28-25s56.202 9.259 78.281 25z" clip-rule="evenodd"/><path fill="#111" d="m118.406 0 8.706-4.921-8.706-15.399-8.705 15.399zm81.407 144v10h17.14l-8.435-14.921zM37 144l-8.705-4.921L19.859 154H37zm3.126 0v10h3.2l2.605-1.857zm156.561 0-5.805 8.143 2.605 1.857h3.2zM109.701 4.921l81.407 144 17.41-9.842-81.406-144zm-63.996 144 81.407-144-17.411-9.842-81.406 144zM40.125 134H37v20h3.126zm5.806 18.143C66.37 137.57 91.373 129 118.406 129v-20c-31.33 0-60.368 9.948-84.085 26.857zM118.406 129c27.034 0 52.035 8.57 72.476 23.143l11.61-16.286C178.774 118.948 149.737 109 118.406 109zm81.407 5h-3.126v20h3.126z" mask="url(#b)"/></g><defs><clipPath id="a"><path fill="#fff" d="M0 0h235v385H0z"/></clipPath></defs></svg>