<svg xmlns="http://www.w3.org/2000/svg" width="183" height="214" fill="none"><g clip-path="url(#a)"><path fill="#111" d="M119.752 125.352q.48.768.48 1.536 0 2.304-2.112 3.264-.768.384-1.824.384-.768 0-1.44-.384-.672-.288-1.056-1.152-.192-.576-.192-.768 0-1.056.768-1.92.864-.864 1.152-1.536.288-.96 1.344-.96.768 0 1.632.48t1.248 1.056m30.757-2.88a26 26 0 0 0-2.208 2.496q-.96 1.248-4.224 2.88-.384.576-1.728 1.728-1.248 1.152-4.992 1.344-2.496.096-4.032-1.248a8.2 8.2 0 0 1-2.208-3.072 92 92 0 0 1-1.344-3.36q-.096.096-.864.768l-1.536 1.344q-.864.672-1.056.864-.096.096-.384.096-.48 0-.768-.48-.384-.576 0-.96l2.784-2.784a42 42 0 0 0 1.728-2.016q.768-.96 1.824-2.4 1.632-2.496 3.456-4.416 1.92-2.016 2.4-2.976.096-.096.096-.384t-.288-.48a1.2 1.2 0 0 1-.288-.48q-.384-1.536-.384-2.88 0-2.112 1.632-4.992.672-.48 1.824-.768 1.152-.384 1.824-.096.768.384.96.864.288.48.48 1.248v.192q.096.096.096.288 0 .576-.192 1.248a19 19 0 0 1-.48 1.44q0 .384-.96 1.44-.864 1.056-.576 1.344.576 1.248 1.92 3.264 1.632 2.304 2.208 4.224.672 1.92.672 3.456 0 1.824-.576 3.168-.48 1.344-.768 2.304.864.096 2.016-.864a25 25 0 0 0 2.208-2.304q1.152-1.344 1.728-1.92t.864-.576q.48 0 0 1.44-.384 1.44-.864 2.016m-9.312-18.432a4.5 4.5 0 0 0-.096-.864q-.096-.48-.576-.576h-.096q-.48 0-.768.48a5 5 0 0 0-.48.768q-.288.768-.576 1.344-.192.48.192.96.384.192 1.344-.768 1.056-1.056 1.056-1.344m.192 15.36q0-1.44-.576-3.072-.48-1.728-1.152-3.072-.576-1.344-.864-1.728l-1.152 1.44q-1.152 1.344-2.496 2.976-.864.96-1.728 2.496t-1.056 2.688l.864 1.152q.864 1.056 2.112 2.016 1.344.96 2.592.672 1.92-.48 2.688-2.208.768-1.824.768-3.36m-3.264 7.488h-1.728l-.96-.192q-.48-.192-1.44-.768l-.96-.576-.096.192v.48q0 .384.096.864.192.48.672.96.768.576 1.344.96.576.288 1.536 0 .672-.192 1.056-1.056zm44.539-2.976q-1.728 2.496-3.84 3.84-2.016 1.248-3.84 1.248t-2.976-1.248q-1.344-2.304-1.92-4.704-.48-2.496-.864-6.432-.288-3.936-1.248-10.56l-.576-.672q-.576-.768-1.344-.768-.48 0-1.056.576-.576.48-1.152 1.92a49.6 49.6 0 0 0-2.304 7.584q-.768 3.936-1.44 7.296t-1.632 5.28q-.672 1.344-1.728 1.344-.864 0-1.632-.864l.096-1.728q.192-1.824.48-4.416.288-2.688.48-5.184-.192.096-1.056 1.152-.864.96-1.92 1.92-1.056.864-1.92.768-.576-.672.576-2.016 1.152-1.44 2.592-3.168 1.536-1.824 2.112-3.552 1.344-4.032 1.824-8.64.576-4.608 1.248-8.736 1.44-8.928 2.88-15.648 1.536-6.72 3.648-10.368 2.112-3.744 5.376-3.744 1.344 0 2.112 1.056.768.96.768 3.648v.96q0 .576-.096 1.152-.576 6.432-2.4 14.208-1.824 7.68-6.528 16.704a8 8 0 0 1 2.112-.288q1.92 0 3.552.672 1.632.576 2.208 1.344t.768 1.728.192 2.208q0 2.4-.576 5.952-.48 3.552-.48 8.352 0 1.632 1.056 2.496 1.152.768 2.688.768 1.344 0 2.592-.576a5.07 5.07 0 0 0 2.016-1.632q.096-.192.576-.192.288 0 .48.288.288.192.096.672m-10.656-55.584q0-.864-.384-.864-.576 0-1.824 1.632-1.152 1.536-2.304 4.032a34.4 34.4 0 0 0-1.92 5.28q-1.152 4.416-1.92 7.968-.768 3.456-1.248 8.256-.096 1.44-.192 3.264a143 143 0 0 1-.192 2.976v1.248a146 146 0 0 1 3.072-4.704q1.632-2.4 2.688-5.664a65 65 0 0 0 2.304-8.736q.96-4.608 1.44-8.544t.48-6.144"/></g><defs><clipPath id="a"><path fill="#fff" d="M0 0h183v214H0z"/></clipPath></defs></svg>