<svg xmlns="http://www.w3.org/2000/svg" width="200" height="200" fill="none"><g fill="#eee" clip-path="url(#a)"><path d="M100 9C49.832 9 9 49.85 9 100s40.85 91 91 91 91-40.851 91-91-40.851-91-91-91m-.135 8.086a5.96 5.96 0 0 1 4.121 1.807 5.996 5.996 0 0 1-.06 8.413 5.988 5.988 0 1 1-4.06-10.22m13.707 9.856a73.68 73.68 0 0 1 50.438 35.923l-7.065 15.94c-1.213 2.752.038 5.987 2.772 7.219l13.591 6.025c.422 4.249.473 8.526.154 12.783h-7.565c-.751 0-1.059.501-1.059 1.232v3.465c0 8.163-4.601 9.953-8.644 10.396-3.85.443-8.105-1.617-8.644-3.966-2.271-12.763-6.045-15.478-12.012-20.194 7.411-4.698 15.112-11.647 15.112-20.926 0-10.03-6.873-16.344-11.551-19.444-6.584-4.331-13.861-5.198-15.824-5.198h-78.16a73.67 73.67 0 0 1 41.217-23.255l9.221 9.664c2.08 2.175 5.525 2.272 7.7.173zm-85.09 44.316a5.987 5.987 0 0 1 4.06 10.22 5.987 5.987 0 1 1-4.06-10.22m142.747.27a5.987 5.987 0 1 1-.347 11.969 5.987 5.987 0 0 1 .347-11.97m-131.466.962h10.434v47.05h-21.06a73.7 73.7 0 0 1-2.387-28.126l12.898-5.737c2.753-1.232 4.004-4.447 2.772-7.2zm43.546.5h24.853c1.29 0 9.068 1.483 9.068 7.316 0 4.832-5.968 6.565-10.877 6.565H83.29zm0 33.806h19.04c1.732 0 9.298.5 11.704 10.164.751 2.965 2.426 12.629 3.562 15.728 1.136 3.466 5.737 10.396 10.646 10.396h31.071a74 74 0 0 1-6.815 7.893l-12.648-2.714c-2.945-.636-5.852 1.251-6.488 4.196l-3.003 14.015a73.67 73.67 0 0 1-61.43-.289l-3.003-14.014c-.635-2.946-3.523-4.833-6.469-4.197l-12.378 2.656a74 74 0 0 1-6.391-7.546h60.198c.674 0 1.136-.116 1.136-.751V121.04c0-.616-.462-.75-1.136-.75H83.29zm-27.78 48.763a5.986 5.986 0 0 1 5.815 5.987 5.984 5.984 0 0 1-5.987 5.987 5.987 5.987 0 0 1-5.516-8.319 5.98 5.98 0 0 1 5.689-3.655m88.652.269a5.985 5.985 0 0 1 5.814 5.987 5.987 5.987 0 1 1-11.502-2.332 5.99 5.99 0 0 1 5.688-3.655"/><path fill-rule="evenodd" stroke="#eee" stroke-linecap="round" stroke-linejoin="round" stroke-width="3" d="M186.182 100a86.183 86.183 0 1 1-172.365 0 86.183 86.183 0 0 1 172.365 0m-1.622-8.323L198 100l-13.44 8.323 11.548 10.794-14.792 5.542 9.23 12.842-15.622 2.549 6.566 14.405-15.816-.56 3.631 15.41-15.41-3.631.56 15.816-14.405-6.566-2.549 15.622-12.842-9.23-5.542 14.792-10.794-11.548L100 198l-8.323-13.44-10.794 11.548-5.542-14.792-12.842 9.23-2.549-15.622-14.405 6.566.56-15.816-15.41 3.631 3.63-15.41-15.815.56 6.566-14.405-15.622-2.549 9.23-12.842-14.792-5.542 11.548-10.794L2 100l13.44-8.323L3.892 80.883l14.792-5.542-9.23-12.842 15.622-2.549-6.566-14.405 15.815.56-3.63-15.41 15.41 3.63-.56-15.815 14.405 6.566L62.5 9.454l12.84 9.23 5.543-14.792L91.677 15.44 100 2l8.323 13.44 10.794-11.548 5.542 14.792 12.842-9.23 2.549 15.622 14.405-6.566-.56 15.815 15.41-3.63-3.631 15.41 15.816-.56-6.566 14.405 15.622 2.55-9.23 12.84 14.792 5.543z" clip-rule="evenodd"/></g><defs><clipPath id="a"><path fill="#fff" d="M0 0h200v200H0z"/></clipPath></defs></svg>