<svg xmlns="http://www.w3.org/2000/svg" width="219" height="200" fill="none"><g fill="#F7A41D" clip-path="url(#a)"><path d="M65.714 31.429 40 62.857l-12.857-20z"/><path d="M65.714 31.429 47.143 47.143 40 62.857h-8.571v72.857h12.857l-15.715 7.143-11.428 24.286H0V31.429z"/><path d="m44.286 135.714-27.143 31.429-11.429-15.714zM80 31.429l8.572 20-35.715 11.428z"/><path d="M80 31.429h78.571v31.428H52.857L80 45.714zm85.714 104.285-27.142 31.429-10-18.572z"/><path d="m165.714 135.714-22.857 12.857-4.286 18.572H60v-31.429z"/><path d="m214.286 0-140 167.143-70 32.857 140-168.571zm-12.857 31.429L200 57.143l-25.714 7.143z"/><path d="M218.571 31.429v135.714h-67.142l20-17.143 7.142-14.286h8.572V64.286h-12.857l14.285-12.857 12.858-20z"/><path d="m178.571 135.714 7.143 21.429-34.285 10z"/></g><defs><clipPath id="a"><path fill="#fff" d="M0 0h218.571v200H0z"/></clipPath></defs></svg>